<svg version="1.2" xmlns="http://www.w3.org/2000/svg" viewBox="0 0 50 50" width="50" height="50">
	<title>Nytt projekt</title>
	<style>.s0 {
  fill: #366d39;
}

.s1 {
  fill: #000;
}

</style>
	<path id="Form 1 copy" class="s0" d="m14.1 28.1c-7.8 0-14.1-6.3-14.1-14 0-7.8 6.3-14.1 14.1-14.1 7.7 0 14 6.3 14 14.1 0 7.7-6.3 14-14 14z"></path>
	<path id="Form 3 copy" class="s0" d="m42.2 15.6c-4.3 0-7.8-3.5-7.8-7.8 0-4.3 3.5-7.8 7.8-7.8 4.3 0 7.8 3.5 7.8 7.8 0 4.3-3.5 7.8-7.8 7.8z"></path>
	<path id="Form 1" class="s0" d="m35.9 50c-7.7 0-14-6.3-14-14.1 0-7.7 6.3-14 14-14 7.8 0 14.1 6.3 14.1 14 0 7.8-6.3 14.1-14.1 14.1z"></path>
	<path id="Form 3" class="s0" d="m7.8 50c-4.3 0-7.8-3.5-7.8-7.8 0-4.3 3.5-7.8 7.8-7.8 4.3 0 7.8 3.5 7.8 7.8 0 4.3-3.5 7.8-7.8 7.8z"></path>
	<path id="IW" class="s1" aria-label="IW" d="m2.7 44.3l-1-37.5q0-0.6 0.1-1 0.2-0.4 0.6-0.6 0.5-0.2 1.4-0.3 0.9-0.1 2.3-0.1 1.5 0 2.4 0.1 0.9 0.1 1.3 0.3 0.5 0.2 0.7 0.6 0.1 0.4 0.1 1l-1.1 37.5q0 0.6-0.1 0.9-0.1 0.4-0.5 0.5-0.3 0.2-1 0.3-0.6 0-1.8 0-1.1 0-1.8 0-0.6-0.1-1-0.3-0.3-0.1-0.4-0.5-0.1-0.3-0.2-0.9zm12.7 0l-6.5-37.5q-0.1-0.6 0-1 0.2-0.4 0.7-0.6 0.5-0.2 1.5-0.3 1-0.1 2.6-0.1 1.5 0 2.4 0.1 0.9 0.1 1.4 0.3 0.5 0.2 0.7 0.6 0.1 0.4 0.2 1l1.5 32.2h0.7l4.8-32.2q0.1-0.6 0.2-1 0.2-0.4 0.6-0.6 0.4-0.2 1.1-0.3 0.8-0.1 2.1-0.1 1.3 0 2.1 0.1 0.8 0.1 1.2 0.3 0.5 0.2 0.6 0.6 0.2 0.4 0.3 1l4.8 32.2h0.7l1.5-32.2q0-0.6 0.2-1 0.2-0.4 0.6-0.6 0.5-0.2 1.3-0.3 0.9-0.1 2.4-0.1 1.4 0 2.3 0.1 1 0.1 1.5 0.3 0.4 0.2 0.6 0.6 0.1 0.4 0 1l-6.4 37.5q-0.2 0.6-0.4 0.9-0.2 0.3-0.6 0.5-0.4 0.2-1.1 0.3-0.7 0-1.7 0-1.5 0-2.4 0-0.9-0.1-1.4-0.3-0.6-0.2-0.9-0.5-0.2-0.3-0.3-0.9l-4.7-27.4h-0.5l-4.6 27.4q-0.1 0.6-0.4 0.9-0.2 0.3-0.8 0.5-0.5 0.2-1.4 0.3-0.8 0-2.2 0-1.2 0-2 0-0.8-0.1-1.2-0.3-0.5-0.2-0.7-0.5-0.2-0.3-0.4-0.9z"></path>
</svg>